<svg xmlns="http://www.w3.org/2000/svg" xmlns:xlink="http://www.w3.org/1999/xlink" viewBox="0 0 105.31 153.39"><defs><style>.cls-1{fill-rule:evenodd;}.cls-1,.cls-2{fill:url(#linear-gradient);}.cls-3{fill:url(#linear-gradient-3);}.cls-4{fill:url(#linear-gradient-4);}.cls-5{fill:url(#linear-gradient-5);}.cls-6{fill:url(#linear-gradient-6);}.cls-7{fill:url(#linear-gradient-7);}</style><linearGradient id="linear-gradient" x1="52.66" y1="-21.56" x2="52.66" y2="203.82" gradientUnits="userSpaceOnUse"><stop offset="0" stop-color="#ff3d19"/><stop offset="0.18" stop-color="#ff3f1c" stop-opacity="0.99"/><stop offset="0.31" stop-color="#ff4624" stop-opacity="0.95"/><stop offset="0.43" stop-color="#ff5333" stop-opacity="0.89"/><stop offset="0.54" stop-color="#ff6447" stop-opacity="0.8"/><stop offset="0.64" stop-color="#ff7a61" stop-opacity="0.69"/><stop offset="0.74" stop-color="#ff9581" stop-opacity="0.55"/><stop offset="0.83" stop-color="#ffb5a8" stop-opacity="0.38"/><stop offset="0.92" stop-color="#ffdad3" stop-opacity="0.19"/><stop offset="1" stop-color="#fff" stop-opacity="0"/></linearGradient><linearGradient id="linear-gradient-3" x1="41.02" y1="48.36" x2="65.7" y2="48.36" gradientUnits="userSpaceOnUse"><stop offset="0" stop-color="#ff3d19"/><stop offset="0.43" stop-color="#fd401c"/><stop offset="0.75" stop-color="#f64924"/><stop offset="1" stop-color="#eb5730"/></linearGradient><linearGradient id="linear-gradient-4" x1="24.61" y1="53.65" x2="38.67" y2="53.65" xlink:href="#linear-gradient-3"/><linearGradient id="linear-gradient-5" x1="69.22" y1="48.36" x2="80.98" y2="48.36" xlink:href="#linear-gradient-3"/><linearGradient id="linear-gradient-6" x1="69.15" y1="38.08" x2="79.8" y2="38.08" xlink:href="#linear-gradient-3"/><linearGradient id="linear-gradient-7" x1="69.15" y1="58.65" x2="79.8" y2="58.65" xlink:href="#linear-gradient-3"/></defs><g id="Layer_2" data-name="Layer 2"><g id="Layer_1-2" data-name="Layer 1"><path class="cls-1" d="M52.66,0c29.76,0,52.65,22.89,52.65,50.37,0,19.46-27.47,60.67-43.5,85.85-4.58,6.87-13.73,6.87-17.17,0C27.47,111,0,69.83,0,50.37,0,22.89,24,0,52.66,0Zm-.35,11A37.86,37.86,0,1,1,14.46,48.85,37.88,37.88,0,0,1,52.31,11Z"/><ellipse class="cls-2" cx="52.66" cy="148.81" rx="25.18" ry="4.58"/><path class="cls-3" d="M62.13,29.26,41.7,40.12A1.36,1.36,0,0,0,41,41.3V55.43a1.36,1.36,0,0,0,.68,1.18L62.13,67.47a2.48,2.48,0,0,0,3.32-1.12,2.59,2.59,0,0,0,.25-1.23V31.6a2.47,2.47,0,0,0-3.57-2.34Z"/><path class="cls-4" d="M37.5,40.73H28.14a3.52,3.52,0,0,0-3.53,3.52v8.23A3.53,3.53,0,0,0,28.14,56h1.13v7.64a2.94,2.94,0,1,0,5.88,0V56H37.5a1.17,1.17,0,0,0,1.17-1.17V41.9A1.17,1.17,0,0,0,37.5,40.73Z"/><path class="cls-5" d="M79.21,46.6H71a1.77,1.77,0,1,0,0,3.53h8.22a1.77,1.77,0,1,0,0-3.53Z"/><path class="cls-6" d="M71.8,41.66l7.12-4.11a1.76,1.76,0,0,0-1.76-3h0L70,38.61a1.76,1.76,0,1,0,1.77,3Z"/><path class="cls-7" d="M78.92,59.18,71.8,55.06A1.77,1.77,0,0,0,70,58.12l7.13,4.11a1.76,1.76,0,0,0,1.76-3Z"/></g></g></svg>