<svg xmlns="http://www.w3.org/2000/svg" xmlns:xlink="http://www.w3.org/1999/xlink" viewBox="0 0 105.31 153.39"><defs><style>.cls-1{fill-rule:evenodd;}.cls-1,.cls-2{fill:url(#linear-gradient);}.cls-3{fill:url(#linear-gradient-3);}.cls-4{fill:url(#linear-gradient-4);}.cls-5{fill:url(#linear-gradient-5);}</style><linearGradient id="linear-gradient" x1="52.66" y1="-21.56" x2="52.66" y2="203.82" gradientUnits="userSpaceOnUse"><stop offset="0" stop-color="#4959ad"/><stop offset="0.19" stop-color="#4c5cae" stop-opacity="0.98"/><stop offset="0.35" stop-color="#5564b1" stop-opacity="0.92"/><stop offset="0.49" stop-color="#6471b7" stop-opacity="0.83"/><stop offset="0.62" stop-color="#7a85bf" stop-opacity="0.69"/><stop offset="0.74" stop-color="#959ec9" stop-opacity="0.51"/><stop offset="0.87" stop-color="#b7bcd5" stop-opacity="0.3"/><stop offset="0.98" stop-color="#dfe0e3" stop-opacity="0.04"/><stop offset="1" stop-color="#e6e6e6" stop-opacity="0"/></linearGradient><linearGradient id="linear-gradient-3" x1="50.01" y1="-21.56" x2="50.01" y2="203.82" xlink:href="#linear-gradient"/><linearGradient id="linear-gradient-4" x1="72.51" y1="-21.56" x2="72.51" y2="203.82" xlink:href="#linear-gradient"/><linearGradient id="linear-gradient-5" x1="37.49" y1="-21.56" x2="37.49" y2="203.82" xlink:href="#linear-gradient"/></defs><g id="Layer_2" data-name="Layer 2"><g id="Layer_1-2" data-name="Layer 1"><path class="cls-1" d="M52.66,0c29.76,0,52.65,22.89,52.65,50.37,0,19.46-27.47,60.67-43.5,85.85-4.58,6.87-13.73,6.87-17.17,0C27.47,111,0,69.83,0,50.37,0,22.89,24,0,52.66,0Zm-.35,11A37.86,37.86,0,1,1,14.46,48.85,37.88,37.88,0,0,1,52.31,11Z"/><ellipse class="cls-2" cx="52.66" cy="148.81" rx="25.18" ry="4.58"/><path class="cls-3" d="M65.81,33.33,55.74,30.49a1.75,1.75,0,0,1-1.19-1.19L51.72,19.22a1.77,1.77,0,0,0-3.4,0L45.48,29.29a1.74,1.74,0,0,1-1.26,1.2L34.15,33.32a1.77,1.77,0,0,0,0,3.4l10.07,2.83a2,2,0,0,1,1.26,1.2l2.83,10.07a1.77,1.77,0,0,0,3.4,0l2.83-10.07a1.75,1.75,0,0,1,1.2-1.19l10.07-2.83A1.75,1.75,0,0,0,65.81,33.33Z"/><path class="cls-4" d="M83.37,51.59l-6.92-2a1.08,1.08,0,0,1-.82-.81l-1.95-6.93a1.21,1.21,0,0,0-2.33,0L69.4,48.81a1.19,1.19,0,0,1-.82.82l-6.93,1.95a1.21,1.21,0,0,0,0,2.33l6.93,2a1.07,1.07,0,0,1,.81.82l2,6.93a1.21,1.21,0,0,0,2.33,0l2-6.93a1.06,1.06,0,0,1,.81-.81l6.93-1.95A1.2,1.2,0,0,0,83.37,51.59Z"/><path class="cls-5" d="M49.56,62l-7.67-2.15a1.42,1.42,0,0,1-1-.94L38.8,51.26a1.34,1.34,0,0,0-2.58,0l-2.14,7.68a1.41,1.41,0,0,1-.94.94L25.46,62a1.33,1.33,0,0,0,0,2.58l7.67,2.14a1.45,1.45,0,0,1,.95,1l2.14,7.68a1.34,1.34,0,0,0,2.58,0l2.14-7.68a1.44,1.44,0,0,1,.94-1l7.68-2.13A1.35,1.35,0,0,0,49.56,62Z"/></g></g></svg>