<svg xmlns="http://www.w3.org/2000/svg" xmlns:xlink="http://www.w3.org/1999/xlink" viewBox="0 0 105.31 153.39"><defs><style>.cls-1,.cls-3{fill-rule:evenodd;}.cls-1,.cls-2{fill:url(#linear-gradient);}.cls-3{fill:url(#linear-gradient-3);}</style><linearGradient id="linear-gradient" x1="52.66" y1="-21.56" x2="52.66" y2="203.82" gradientUnits="userSpaceOnUse"><stop offset="0" stop-color="#8030a1"/><stop offset="0.22" stop-color="#8234a3" stop-opacity="0.98"/><stop offset="0.37" stop-color="#8a40a8" stop-opacity="0.92"/><stop offset="0.51" stop-color="#9654b2" stop-opacity="0.82"/><stop offset="0.64" stop-color="#a871bf" stop-opacity="0.68"/><stop offset="0.76" stop-color="#bf97d0" stop-opacity="0.5"/><stop offset="0.88" stop-color="#dbc4e4" stop-opacity="0.28"/><stop offset="0.99" stop-color="#fcfafd" stop-opacity="0.02"/><stop offset="1" stop-color="#fff" stop-opacity="0"/></linearGradient><linearGradient id="linear-gradient-3" x1="23.28" y1="49.49" x2="82.48" y2="49.49" gradientUnits="userSpaceOnUse"><stop offset="0" stop-color="#8030a1"/><stop offset="0.57" stop-color="#7e33a0"/><stop offset="0.98" stop-color="#773c9c"/><stop offset="1" stop-color="#773d9c"/></linearGradient></defs><g id="Layer_2" data-name="Layer 2"><g id="Layer_1-2" data-name="Layer 1"><path class="cls-1" d="M52.66,0c29.76,0,52.65,22.89,52.65,50.37,0,19.46-27.47,60.67-43.5,85.85-4.58,6.87-13.73,6.87-17.17,0C27.47,111,0,69.83,0,50.37,0,22.89,24,0,52.66,0Zm-.35,11A37.86,37.86,0,1,1,14.46,48.85,37.88,37.88,0,0,1,52.31,11Z"/><ellipse class="cls-2" cx="52.66" cy="148.81" rx="25.18" ry="4.58"/><path class="cls-3" d="M80.12,32.29V64.11s-9.05-2.54-15.78-1.25a28.43,28.43,0,0,0-11.21,5V68l-.06,0L53,68v-.09a28.35,28.35,0,0,0-11.2-5c-6.73-1.29-16.67,1.25-16.67,1.25V32.2l-1.86.28V66.76S34.11,64,41.48,65.39A24.88,24.88,0,0,1,53.1,71a24.88,24.88,0,0,1,11.63-5.58C72.1,64,82.48,66.76,82.48,66.76V32.62S81.58,32.47,80.12,32.29ZM41.26,59.64A28.35,28.35,0,0,1,51.7,64.18V32.87a28.65,28.65,0,0,0-10.48-4.55c-6-1.14-13.79,1.13-13.79,1.13v31.3S35.27,58.49,41.26,59.64Zm36.56,1.23V29.56s-7.16-2.27-13.13-1.12A30,30,0,0,0,54.05,33V64.3a29.93,29.93,0,0,1,10.6-4.55C70.64,58.6,77.82,60.87,77.82,60.87Z"/></g></g></svg>