<svg xmlns="http://www.w3.org/2000/svg" xmlns:xlink="http://www.w3.org/1999/xlink" viewBox="0 0 105.31 153.39"><defs><style>.cls-1{fill-rule:evenodd;}.cls-1,.cls-2{fill:url(#linear-gradient);}.cls-3{fill:#fbb03b;}</style><linearGradient id="linear-gradient" x1="52.66" y1="-21.56" x2="52.66" y2="203.82" gradientUnits="userSpaceOnUse"><stop offset="0" stop-color="#fbb03b"/><stop offset="0.18" stop-color="#fbb13d" stop-opacity="0.99"/><stop offset="0.32" stop-color="#fbb445" stop-opacity="0.95"/><stop offset="0.43" stop-color="#fbb951" stop-opacity="0.89"/><stop offset="0.54" stop-color="#fcc063" stop-opacity="0.8"/><stop offset="0.65" stop-color="#fcc979" stop-opacity="0.68"/><stop offset="0.74" stop-color="#fdd495" stop-opacity="0.54"/><stop offset="0.84" stop-color="#fee2b6" stop-opacity="0.37"/><stop offset="0.93" stop-color="#fef1dc" stop-opacity="0.18"/><stop offset="1" stop-color="#fff" stop-opacity="0"/></linearGradient></defs><g id="Layer_2" data-name="Layer 2"><g id="Layer_1-2" data-name="Layer 1"><path class="cls-1" d="M52.66,0c29.76,0,52.65,22.89,52.65,50.37,0,19.46-27.47,60.67-43.5,85.85-4.58,6.87-13.73,6.87-17.17,0C27.47,111,0,69.83,0,50.37,0,22.89,24,0,52.66,0Zm-.35,11A37.86,37.86,0,1,1,14.46,48.85,37.88,37.88,0,0,1,52.31,11Z"/><ellipse class="cls-2" cx="52.66" cy="148.81" rx="25.18" ry="4.58"/><path class="cls-3" d="M78.32,65.71h0a3.32,3.32,0,0,0,0-4.67L55.76,38.5l-4.59,4.65L73.74,65.71a3.22,3.22,0,0,0,4.56,0Z"/><polygon class="cls-3" points="50.42 24.65 37.48 37.75 46.2 46.58 59.15 33.48 50.42 24.65"/><path class="cls-3" d="M36.76,38.62a1.62,1.62,0,0,0-1.2-.5,1.68,1.68,0,0,0-1.2.5l-.75.75a1.76,1.76,0,0,0,0,2.45l8.6,8.66a1.73,1.73,0,0,0,2.39,0l.75-.75a1.74,1.74,0,0,0,0-2.45Z"/><path class="cls-3" d="M59.86,32.61a1.72,1.72,0,0,0,2.4,0l.75-.75a1.74,1.74,0,0,0,0-2.45l-8.59-8.65a1.69,1.69,0,0,0-2.39,0v0l-.75.75a1.73,1.73,0,0,0,0,2.44Z"/><rect class="cls-3" x="29.28" y="61" width="23" height="4" rx="1.58"/><rect class="cls-3" x="27.28" y="66" width="27" height="5" rx="1.58"/></g></g></svg>