<svg xmlns="http://www.w3.org/2000/svg" xmlns:xlink="http://www.w3.org/1999/xlink" viewBox="0 0 105.31 153.39"><defs><style>.cls-1{fill-rule:evenodd;}.cls-1,.cls-2{fill:url(#linear-gradient);}.cls-3{fill:url(#linear-gradient-3);}</style><linearGradient id="linear-gradient" x1="52.66" y1="-21.56" x2="52.66" y2="203.82" gradientUnits="userSpaceOnUse"><stop offset="0" stop-color="#009245"/><stop offset="0.22" stop-color="#059449" stop-opacity="0.98"/><stop offset="0.39" stop-color="#169b55" stop-opacity="0.92"/><stop offset="0.53" stop-color="#31a769" stop-opacity="0.81"/><stop offset="0.67" stop-color="#59b886" stop-opacity="0.65"/><stop offset="0.79" stop-color="#8bceab" stop-opacity="0.45"/><stop offset="0.91" stop-color="#c9e8d7" stop-opacity="0.21"/><stop offset="1" stop-color="#fff" stop-opacity="0"/></linearGradient><linearGradient id="linear-gradient-3" x1="26.29" y1="48.82" x2="77.38" y2="48.82" gradientUnits="userSpaceOnUse"><stop offset="0" stop-color="#009245"/><stop offset="0.3" stop-color="#039245"/><stop offset="0.53" stop-color="#0c9147"/><stop offset="0.72" stop-color="#1c9049"/><stop offset="0.9" stop-color="#338e4c"/><stop offset="1" stop-color="#428d4e"/></linearGradient></defs><g id="Layer_2" data-name="Layer 2"><g id="Layer_1-2" data-name="Layer 1"><path class="cls-1" d="M52.66,0c29.76,0,52.65,22.89,52.65,50.37,0,19.46-27.47,60.67-43.5,85.85-4.58,6.87-13.73,6.87-17.17,0C27.47,111,0,69.83,0,50.37,0,22.89,24,0,52.66,0Zm-.35,11A37.86,37.86,0,1,1,14.46,48.85,37.88,37.88,0,0,1,52.31,11Z"/><ellipse class="cls-2" cx="52.66" cy="148.81" rx="25.18" ry="4.58"/><path class="cls-3" d="M77.35,26.52a13.75,13.75,0,0,1-6.12,9.75,12.8,12.8,0,0,1-6.83,1.9,16.12,16.12,0,0,1-4-.55v8.85c-.4,0-.81-.06-1.22-.06s-.81,0-1.22.06v-4a15.61,15.61,0,0,1-4,.55,12.8,12.8,0,0,1-6.83-1.9A13.79,13.79,0,0,1,41,31.39a2.51,2.51,0,0,1,1.75-2.8,13.69,13.69,0,0,1,11.44,1.18,12.48,12.48,0,0,1,4,4,13.53,13.53,0,0,1,6-8.9A13.73,13.73,0,0,1,75.6,23.72,2.51,2.51,0,0,1,77.35,26.52ZM55.64,56.83H60.7A4.64,4.64,0,0,1,65,59.55a4.24,4.24,0,0,1,.35,1.29l.93-1,3.49-3.77a11.58,11.58,0,0,0-10.55-7.2A11.38,11.38,0,0,0,50.43,53,11.89,11.89,0,0,1,55.64,56.83Zm20.07-1.31c-.65-.34-1.49-.56-3.18,1.07l-6.69,7.25a6,6,0,0,1-4.39,1.92H46.52a1.22,1.22,0,1,1,0-2.43H60.7a2,2,0,1,0,0-4.06H55l-.09,0H54.8l-.12,0-.11,0-.11,0-.1-.07L54.27,59l-.09-.08a.81.81,0,0,1-.09-.1L54,58.75c-.15-.22-.31-.42-.47-.62a8.49,8.49,0,0,0-5.91-3.19A13.75,13.75,0,0,0,37.51,59c-.29.29-.57.58-.85.91l0,0s0,.05-.06.07a1.27,1.27,0,0,1-.47.26l-9.79,2.8V74.63L35.41,72a1.26,1.26,0,0,1,.33,0H62.25a8,8,0,0,0,6.42-3.15L76.6,58.19a1.88,1.88,0,0,0,.15-1.43A2.05,2.05,0,0,0,75.71,55.52Z"/></g></g></svg>