<svg xmlns="http://www.w3.org/2000/svg" xmlns:xlink="http://www.w3.org/1999/xlink" viewBox="0 0 105.31 153.39"><defs><style>.cls-1{fill-rule:evenodd;fill:url(#linear-gradient);}.cls-2{fill:url(#linear-gradient-2);}.cls-3{fill:url(#linear-gradient-3);}</style><linearGradient id="linear-gradient" x1="17.23" y1="-10.89" x2="121.65" y2="169.97" gradientUnits="userSpaceOnUse"><stop offset="0" stop-color="#00d4c3"/><stop offset="0.12" stop-color="#05d5c4" stop-opacity="0.98"/><stop offset="0.26" stop-color="#16d8c8" stop-opacity="0.92"/><stop offset="0.4" stop-color="#30dcce" stop-opacity="0.81"/><stop offset="0.55" stop-color="#56e3d7" stop-opacity="0.66"/><stop offset="0.7" stop-color="#86ebe3" stop-opacity="0.47"/><stop offset="0.86" stop-color="#c1f4f0" stop-opacity="0.24"/><stop offset="1" stop-color="#fff" stop-opacity="0"/></linearGradient><linearGradient id="linear-gradient-2" x1="-193" y1="-276.69" x2="131.97" y2="286.19" xlink:href="#linear-gradient"/><linearGradient id="linear-gradient-3" x1="-20.15" y1="-67.73" x2="184.25" y2="286.31" xlink:href="#linear-gradient"/></defs><g id="Layer_2" data-name="Layer 2"><g id="Layer_1-2" data-name="Layer 1"><path class="cls-1" d="M52.66,0c29.76,0,52.65,22.89,52.65,50.37,0,19.46-27.47,60.67-43.5,85.85-4.58,6.87-13.73,6.87-17.17,0C27.47,111,0,69.83,0,50.37,0,22.89,24,0,52.66,0Zm-.35,11A37.86,37.86,0,1,1,14.46,48.85,37.88,37.88,0,0,1,52.31,11Z"/><ellipse class="cls-2" cx="52.66" cy="148.81" rx="25.18" ry="4.58"/><path class="cls-3" d="M53.29,18.51a1.37,1.37,0,0,0-2.11,0C46.69,24.32,29.93,47,29.93,57.7a22.3,22.3,0,0,0,44.6,0C74.53,47,57.77,24.32,53.29,18.51Zm6.46,53.71a1.69,1.69,0,0,1-.79.13,2.08,2.08,0,0,1-1.85-1.19,2.17,2.17,0,0,1,1.06-2.64c7.78-3.17,7.12-12.67,7-12.8a2,2,0,1,1,4-.26C69.65,59.68,68.07,68.78,59.75,72.22Z"/></g></g></svg>